<mxfile host="app.diagrams.net" modified="2020-11-29T02:56:15.435Z" agent="5.0 (Windows)" etag="cD3V7QOTisYs3zCIcsqQ" version="13.7.7" type="github">
  <diagram id="6a731a19-8d31-9384-78a2-239565b7b9f0" name="Page-1">
    <mxGraphModel dx="2265" dy="836" grid="1" gridSize="10" guides="1" tooltips="1" connect="1" arrows="1" fold="1" page="1" pageScale="1" pageWidth="1169" pageHeight="827" background="#ffffff" math="0" shadow="0">
      <root>
        <mxCell id="0" />
        <mxCell id="1" parent="0" />
        <mxCell id="oBGM9gTl_-Td0VagPwam-129" style="edgeStyle=orthogonalEdgeStyle;rounded=0;orthogonalLoop=1;jettySize=auto;html=1;entryX=0;entryY=0.5;entryDx=0;entryDy=0;" edge="1" parent="1" source="2" target="oBGM9gTl_-Td0VagPwam-123">
          <mxGeometry relative="1" as="geometry" />
        </mxCell>
        <mxCell id="2" value="&lt;div&gt;start&lt;/div&gt;&lt;div&gt;&lt;br&gt;&lt;/div&gt;run_open_dialog()" style="shape=mxgraph.flowchart.terminator;strokeWidth=2;gradientColor=none;gradientDirection=north;fontStyle=0;html=1;" parent="1" vertex="1">
          <mxGeometry x="175" y="249" width="159.5" height="100" as="geometry" />
        </mxCell>
        <mxCell id="oBGM9gTl_-Td0VagPwam-131" style="edgeStyle=orthogonalEdgeStyle;rounded=0;orthogonalLoop=1;jettySize=auto;html=1;entryX=0;entryY=0.39;entryDx=0;entryDy=0;entryPerimeter=0;" edge="1" parent="1" source="5" target="oBGM9gTl_-Td0VagPwam-122">
          <mxGeometry relative="1" as="geometry" />
        </mxCell>
        <mxCell id="5" value="&lt;div&gt;INPUT&lt;br&gt;&lt;/div&gt;&lt;div&gt;Dialog Box gets &lt;br&gt;&lt;/div&gt;&lt;div&gt;user-selected CSV file &lt;/div&gt;" style="shape=mxgraph.flowchart.data;strokeWidth=2;gradientColor=none;gradientDirection=north;fontStyle=0;html=1;" parent="1" vertex="1">
          <mxGeometry x="645" y="289" width="159" height="80" as="geometry" />
        </mxCell>
        <mxCell id="29" value="app.mainloop" style="shape=mxgraph.flowchart.decision;strokeWidth=2;gradientColor=none;gradientDirection=north;fontStyle=0;html=1;" parent="1" vertex="1">
          <mxGeometry x="60" y="1100" width="130" height="100" as="geometry" />
        </mxCell>
        <mxCell id="oBGM9gTl_-Td0VagPwam-63" value="destroy file dialog window" style="strokeWidth=2;html=1;shape=mxgraph.flowchart.terminator;whiteSpace=wrap;" vertex="1" parent="1">
          <mxGeometry x="215" y="489" width="100" height="60" as="geometry" />
        </mxCell>
        <mxCell id="oBGM9gTl_-Td0VagPwam-96" style="edgeStyle=orthogonalEdgeStyle;rounded=0;orthogonalLoop=1;jettySize=auto;html=1;entryX=0.458;entryY=0.16;entryDx=0;entryDy=0;entryPerimeter=0;" edge="1" parent="1" source="oBGM9gTl_-Td0VagPwam-66" target="oBGM9gTl_-Td0VagPwam-67">
          <mxGeometry relative="1" as="geometry" />
        </mxCell>
        <mxCell id="oBGM9gTl_-Td0VagPwam-66" value="&lt;div&gt;call &lt;br&gt;&lt;/div&gt;run_get_features(df) " style="shape=mxgraph.flowchart.terminator;strokeWidth=2;gradientColor=none;gradientDirection=north;fontStyle=0;html=1;" vertex="1" parent="1">
          <mxGeometry x="265" y="990" width="120" height="80" as="geometry" />
        </mxCell>
        <mxCell id="oBGM9gTl_-Td0VagPwam-143" style="edgeStyle=orthogonalEdgeStyle;rounded=0;orthogonalLoop=1;jettySize=auto;html=1;" edge="1" parent="1" source="oBGM9gTl_-Td0VagPwam-67" target="oBGM9gTl_-Td0VagPwam-73">
          <mxGeometry relative="1" as="geometry" />
        </mxCell>
        <mxCell id="oBGM9gTl_-Td0VagPwam-67" value="instantiates class get_features(df) with app " style="rounded=1;whiteSpace=wrap;html=1;absoluteArcSize=1;arcSize=14;strokeWidth=2;" vertex="1" parent="1">
          <mxGeometry x="265" y="1090" width="131" height="100" as="geometry" />
        </mxCell>
        <mxCell id="oBGM9gTl_-Td0VagPwam-69" value="1" style="ellipse;shape=doubleEllipse;whiteSpace=wrap;html=1;aspect=fixed;" vertex="1" parent="1">
          <mxGeometry x="140" y="100" width="80" height="80" as="geometry" />
        </mxCell>
        <mxCell id="oBGM9gTl_-Td0VagPwam-71" value="2" style="ellipse;shape=doubleEllipse;whiteSpace=wrap;html=1;aspect=fixed;" vertex="1" parent="1">
          <mxGeometry x="259.5" y="980" width="40" height="40" as="geometry" />
        </mxCell>
        <mxCell id="oBGM9gTl_-Td0VagPwam-91" value="" style="edgeStyle=orthogonalEdgeStyle;rounded=0;orthogonalLoop=1;jettySize=auto;html=1;" edge="1" parent="1" source="oBGM9gTl_-Td0VagPwam-73" target="oBGM9gTl_-Td0VagPwam-74">
          <mxGeometry relative="1" as="geometry" />
        </mxCell>
        <mxCell id="oBGM9gTl_-Td0VagPwam-73" value="&lt;div&gt;app.mainloop() starts loop calling &lt;br&gt;&lt;/div&gt;&lt;div&gt;get_features(df) &lt;br&gt;&lt;/div&gt;" style="rounded=1;whiteSpace=wrap;html=1;absoluteArcSize=1;arcSize=14;strokeWidth=2;" vertex="1" parent="1">
          <mxGeometry x="480" y="1090" width="100" height="100" as="geometry" />
        </mxCell>
        <mxCell id="oBGM9gTl_-Td0VagPwam-92" style="edgeStyle=orthogonalEdgeStyle;rounded=0;orthogonalLoop=1;jettySize=auto;html=1;entryX=0;entryY=0.5;entryDx=0;entryDy=0;" edge="1" parent="1" source="oBGM9gTl_-Td0VagPwam-74" target="oBGM9gTl_-Td0VagPwam-76">
          <mxGeometry relative="1" as="geometry" />
        </mxCell>
        <mxCell id="oBGM9gTl_-Td0VagPwam-74" value="&lt;div&gt;class is initiated &lt;br&gt;&lt;/div&gt;&lt;div&gt;__init__ &lt;br&gt;&lt;/div&gt;passing self and df" style="rounded=1;whiteSpace=wrap;html=1;absoluteArcSize=1;arcSize=14;strokeWidth=2;" vertex="1" parent="1">
          <mxGeometry x="480" y="1240.5" width="100" height="100" as="geometry" />
        </mxCell>
        <mxCell id="oBGM9gTl_-Td0VagPwam-93" style="edgeStyle=orthogonalEdgeStyle;rounded=0;orthogonalLoop=1;jettySize=auto;html=1;entryX=0;entryY=0.5;entryDx=0;entryDy=0;" edge="1" parent="1" source="oBGM9gTl_-Td0VagPwam-76" target="oBGM9gTl_-Td0VagPwam-78">
          <mxGeometry relative="1" as="geometry">
            <mxPoint x="799.5" y="1390.0000000000005" as="targetPoint" />
          </mxGeometry>
        </mxCell>
        <mxCell id="oBGM9gTl_-Td0VagPwam-76" value="&lt;div&gt;set df as class variable with self.df &lt;br&gt;&lt;/div&gt;" style="rounded=1;whiteSpace=wrap;html=1;absoluteArcSize=1;arcSize=14;strokeWidth=2;" vertex="1" parent="1">
          <mxGeometry x="660" y="1241" width="100" height="100" as="geometry" />
        </mxCell>
        <mxCell id="oBGM9gTl_-Td0VagPwam-110" style="edgeStyle=orthogonalEdgeStyle;rounded=0;orthogonalLoop=1;jettySize=auto;html=1;entryX=1;entryY=0.5;entryDx=0;entryDy=0;" edge="1" parent="1" source="oBGM9gTl_-Td0VagPwam-78" target="oBGM9gTl_-Td0VagPwam-79">
          <mxGeometry relative="1" as="geometry">
            <Array as="points">
              <mxPoint x="910" y="1440" />
              <mxPoint x="617" y="1440" />
            </Array>
          </mxGeometry>
        </mxCell>
        <mxCell id="oBGM9gTl_-Td0VagPwam-78" value="Set display options for pandas data frame view" style="rounded=1;whiteSpace=wrap;html=1;absoluteArcSize=1;arcSize=14;strokeWidth=2;" vertex="1" parent="1">
          <mxGeometry x="859.5" y="1241" width="100" height="100" as="geometry" />
        </mxCell>
        <mxCell id="oBGM9gTl_-Td0VagPwam-79" value="Create Main Page of GUI " style="rounded=1;whiteSpace=wrap;html=1;absoluteArcSize=1;arcSize=14;strokeWidth=2;" vertex="1" parent="1">
          <mxGeometry x="510" y="1390" width="100" height="100" as="geometry" />
        </mxCell>
        <mxCell id="oBGM9gTl_-Td0VagPwam-151" style="edgeStyle=orthogonalEdgeStyle;rounded=0;orthogonalLoop=1;jettySize=auto;html=1;entryX=0.542;entryY=0.2;entryDx=0;entryDy=0;entryPerimeter=0;" edge="1" parent="1" source="oBGM9gTl_-Td0VagPwam-89" target="oBGM9gTl_-Td0VagPwam-144">
          <mxGeometry relative="1" as="geometry" />
        </mxCell>
        <mxCell id="oBGM9gTl_-Td0VagPwam-152" style="edgeStyle=orthogonalEdgeStyle;rounded=0;orthogonalLoop=1;jettySize=auto;html=1;entryX=1;entryY=0.5;entryDx=0;entryDy=0;" edge="1" parent="1" source="oBGM9gTl_-Td0VagPwam-89" target="oBGM9gTl_-Td0VagPwam-148">
          <mxGeometry relative="1" as="geometry">
            <Array as="points">
              <mxPoint x="1070" y="1750" />
              <mxPoint x="1070" y="2170" />
            </Array>
          </mxGeometry>
        </mxCell>
        <mxCell id="oBGM9gTl_-Td0VagPwam-89" value="Define Provider IDSearchTool(self):" style="rounded=1;whiteSpace=wrap;html=1;absoluteArcSize=1;arcSize=14;strokeWidth=2;" vertex="1" parent="1">
          <mxGeometry x="880" y="1700" width="100" height="100" as="geometry" />
        </mxCell>
        <mxCell id="oBGM9gTl_-Td0VagPwam-150" style="edgeStyle=orthogonalEdgeStyle;rounded=0;orthogonalLoop=1;jettySize=auto;html=1;entryX=0.5;entryY=0;entryDx=0;entryDy=0;" edge="1" parent="1" source="oBGM9gTl_-Td0VagPwam-98" target="oBGM9gTl_-Td0VagPwam-142">
          <mxGeometry relative="1" as="geometry" />
        </mxCell>
        <mxCell id="oBGM9gTl_-Td0VagPwam-153" style="edgeStyle=orthogonalEdgeStyle;rounded=0;orthogonalLoop=1;jettySize=auto;html=1;entryX=1;entryY=0.5;entryDx=0;entryDy=0;" edge="1" parent="1" source="oBGM9gTl_-Td0VagPwam-98" target="oBGM9gTl_-Td0VagPwam-147">
          <mxGeometry relative="1" as="geometry">
            <Array as="points">
              <mxPoint x="710" y="1750" />
              <mxPoint x="710" y="2170" />
            </Array>
          </mxGeometry>
        </mxCell>
        <mxCell id="oBGM9gTl_-Td0VagPwam-98" value="Define PatientIDSearchTool(self):&amp;nbsp; " style="rounded=1;whiteSpace=wrap;html=1;absoluteArcSize=1;arcSize=14;strokeWidth=2;" vertex="1" parent="1">
          <mxGeometry x="509.5" y="1700" width="130" height="100" as="geometry" />
        </mxCell>
        <mxCell id="oBGM9gTl_-Td0VagPwam-99" value="Define FeatureRangeTool(self)" style="rounded=1;whiteSpace=wrap;html=1;absoluteArcSize=1;arcSize=14;strokeWidth=2;" vertex="1" parent="1">
          <mxGeometry x="119.5" y="1700" width="140" height="90" as="geometry" />
        </mxCell>
        <mxCell id="oBGM9gTl_-Td0VagPwam-102" value="" style="endArrow=none;dashed=1;html=1;exitX=0.5;exitY=0;exitDx=0;exitDy=0;entryX=0.5;entryY=1;entryDx=0;entryDy=0;" edge="1" parent="1" source="oBGM9gTl_-Td0VagPwam-99" target="oBGM9gTl_-Td0VagPwam-79">
          <mxGeometry width="50" height="50" relative="1" as="geometry">
            <mxPoint x="550" y="1670" as="sourcePoint" />
            <mxPoint x="600" y="1620" as="targetPoint" />
          </mxGeometry>
        </mxCell>
        <mxCell id="oBGM9gTl_-Td0VagPwam-103" value="" style="endArrow=none;dashed=1;html=1;entryX=0.5;entryY=1;entryDx=0;entryDy=0;" edge="1" parent="1" target="oBGM9gTl_-Td0VagPwam-79">
          <mxGeometry width="50" height="50" relative="1" as="geometry">
            <mxPoint x="570" y="1696" as="sourcePoint" />
            <mxPoint x="990" y="1540" as="targetPoint" />
          </mxGeometry>
        </mxCell>
        <mxCell id="oBGM9gTl_-Td0VagPwam-105" value="" style="endArrow=none;dashed=1;html=1;exitX=0.57;exitY=-0.04;exitDx=0;exitDy=0;exitPerimeter=0;entryX=0.5;entryY=1;entryDx=0;entryDy=0;" edge="1" parent="1" source="oBGM9gTl_-Td0VagPwam-89" target="oBGM9gTl_-Td0VagPwam-79">
          <mxGeometry width="50" height="50" relative="1" as="geometry">
            <mxPoint x="930" y="1690" as="sourcePoint" />
            <mxPoint x="990" y="1540" as="targetPoint" />
          </mxGeometry>
        </mxCell>
        <mxCell id="oBGM9gTl_-Td0VagPwam-137" style="edgeStyle=orthogonalEdgeStyle;rounded=0;orthogonalLoop=1;jettySize=auto;html=1;entryX=1;entryY=0.5;entryDx=0;entryDy=0;entryPerimeter=0;" edge="1" parent="1" source="oBGM9gTl_-Td0VagPwam-121" target="oBGM9gTl_-Td0VagPwam-63">
          <mxGeometry relative="1" as="geometry">
            <mxPoint x="290" y="410" as="targetPoint" />
          </mxGeometry>
        </mxCell>
        <mxCell id="oBGM9gTl_-Td0VagPwam-121" value="set df as the read from &quot;path variable " style="rounded=1;whiteSpace=wrap;html=1;absoluteArcSize=1;arcSize=14;strokeWidth=2;" vertex="1" parent="1">
          <mxGeometry x="444.5" y="479" width="100" height="100" as="geometry" />
        </mxCell>
        <mxCell id="oBGM9gTl_-Td0VagPwam-133" style="edgeStyle=orthogonalEdgeStyle;rounded=0;orthogonalLoop=1;jettySize=auto;html=1;entryX=0.5;entryY=0;entryDx=0;entryDy=0;" edge="1" parent="1" source="oBGM9gTl_-Td0VagPwam-122" target="oBGM9gTl_-Td0VagPwam-124">
          <mxGeometry relative="1" as="geometry" />
        </mxCell>
        <mxCell id="oBGM9gTl_-Td0VagPwam-122" value="Store CSV file path in path variable&amp;nbsp; " style="rounded=1;whiteSpace=wrap;html=1;absoluteArcSize=1;arcSize=14;strokeWidth=2;" vertex="1" parent="1">
          <mxGeometry x="894.5" y="289" width="100" height="100" as="geometry" />
        </mxCell>
        <mxCell id="oBGM9gTl_-Td0VagPwam-130" style="edgeStyle=orthogonalEdgeStyle;rounded=0;orthogonalLoop=1;jettySize=auto;html=1;" edge="1" parent="1" source="oBGM9gTl_-Td0VagPwam-123" target="5">
          <mxGeometry relative="1" as="geometry" />
        </mxCell>
        <mxCell id="oBGM9gTl_-Td0VagPwam-123" value="&lt;br&gt;Dialog Box gets user-selected CSV file &lt;br&gt;&lt;br&gt;" style="rounded=1;whiteSpace=wrap;html=1;absoluteArcSize=1;arcSize=14;strokeWidth=2;" vertex="1" parent="1">
          <mxGeometry x="444.5" y="289" width="100" height="100" as="geometry" />
        </mxCell>
        <mxCell id="oBGM9gTl_-Td0VagPwam-134" style="edgeStyle=orthogonalEdgeStyle;rounded=0;orthogonalLoop=1;jettySize=auto;html=1;entryX=1;entryY=0.5;entryDx=0;entryDy=0;" edge="1" parent="1" source="oBGM9gTl_-Td0VagPwam-124" target="oBGM9gTl_-Td0VagPwam-127">
          <mxGeometry relative="1" as="geometry" />
        </mxCell>
        <mxCell id="oBGM9gTl_-Td0VagPwam-124" value="&#xa;&lt;div&gt;Store CSV file path in path variable&lt;/div&gt;&lt;div&gt;&amp;nbsp; &lt;/div&gt;&#xa;&#xa;" style="rounded=1;whiteSpace=wrap;html=1;absoluteArcSize=1;arcSize=14;strokeWidth=2;" vertex="1" parent="1">
          <mxGeometry x="894.5" y="469" width="100" height="100" as="geometry" />
        </mxCell>
        <mxCell id="oBGM9gTl_-Td0VagPwam-135" style="edgeStyle=orthogonalEdgeStyle;rounded=0;orthogonalLoop=1;jettySize=auto;html=1;" edge="1" parent="1" source="oBGM9gTl_-Td0VagPwam-127" target="oBGM9gTl_-Td0VagPwam-121">
          <mxGeometry relative="1" as="geometry" />
        </mxCell>
        <mxCell id="oBGM9gTl_-Td0VagPwam-127" value="set df as global variable " style="rounded=1;whiteSpace=wrap;html=1;absoluteArcSize=1;arcSize=14;strokeWidth=2;" vertex="1" parent="1">
          <mxGeometry x="674.5" y="469" width="100" height="100" as="geometry" />
        </mxCell>
        <mxCell id="oBGM9gTl_-Td0VagPwam-142" value="Define retrieve_ID" style="rounded=1;whiteSpace=wrap;html=1;absoluteArcSize=1;arcSize=14;strokeWidth=2;" vertex="1" parent="1">
          <mxGeometry x="510" y="1900" width="130" height="100" as="geometry" />
        </mxCell>
        <mxCell id="oBGM9gTl_-Td0VagPwam-144" value="Define retrieve_provider(self)" style="rounded=1;whiteSpace=wrap;html=1;absoluteArcSize=1;arcSize=14;strokeWidth=2;" vertex="1" parent="1">
          <mxGeometry x="859.5" y="1900" width="130" height="100" as="geometry" />
        </mxCell>
        <mxCell id="oBGM9gTl_-Td0VagPwam-145" value="Define results_window(self,chart)" style="rounded=1;whiteSpace=wrap;html=1;absoluteArcSize=1;arcSize=14;strokeWidth=2;" vertex="1" parent="1">
          <mxGeometry x="709.5" y="2270" width="150" height="100" as="geometry" />
        </mxCell>
        <mxCell id="oBGM9gTl_-Td0VagPwam-147" value="Define patient_csvself,chart)" style="rounded=1;whiteSpace=wrap;html=1;absoluteArcSize=1;arcSize=14;strokeWidth=2;" vertex="1" parent="1">
          <mxGeometry x="510" y="2120" width="130" height="100" as="geometry" />
        </mxCell>
        <mxCell id="oBGM9gTl_-Td0VagPwam-148" value="Define provider_csv(self)" style="rounded=1;whiteSpace=wrap;html=1;absoluteArcSize=1;arcSize=14;strokeWidth=2;" vertex="1" parent="1">
          <mxGeometry x="865" y="2120" width="130" height="100" as="geometry" />
        </mxCell>
        <mxCell id="oBGM9gTl_-Td0VagPwam-156" value="User can choose either of 3 buttons on main page: " style="text;html=1;strokeColor=none;fillColor=none;align=center;verticalAlign=middle;whiteSpace=wrap;rounded=0;fontSize=24;" vertex="1" parent="1">
          <mxGeometry x="200" y="1440" width="268" height="20" as="geometry" />
        </mxCell>
      </root>
    </mxGraphModel>
  </diagram>
</mxfile>
